<?xml version="1.0" standalone="yes"?>
<svg xmlns="http://www.w3.org/2000/svg" width="1080" height="300">
<path style="fill:#f1f4f4; stroke:none;" d="M0 0L0 300L550 300L550 101L550 54C550 50.6805 548.543 39.5654 554.551 40.3148C560.28 41.0294 559 51.1769 559 55L559 101L559 300L1080 300L1080 0L0 0z"/>
<path style="fill:#f3bb5a; stroke:none;" d="M558 186L558 252C563.306 239.355 559 216.776 559 203L559 88C559 74.6877 559.403 61.3052 558.985 48C558.878 44.6226 556.474 36.758 551.603 40.902C546.922 44.8841 550 64.1229 550 70L550 157C550 165.19 545.417 188.873 558 186z"/>
<path style="fill:#40ae9a; stroke:none;" d="M94.6667 48.3333L95.3333 48.6667L94.6667 48.3333z"/>
<path style="fill:#f3bb5a; stroke:none;" d="M188 48L189 49L188 48z"/>
<path style="fill:#40ae9a; stroke:none;" d="M189 48L191 50L189 48z"/>
<path style="fill:#f3bb5a; stroke:none;" d="M190 48L191 49L190 48M93 49L95 51L93 49z"/>
<path style="fill:#454546; stroke:none;" d="M94 49L94 50C106.122 56.453 117.689 65.4902 126.561 76C132.124 82.5901 136.504 91.473 143 97C155.004 77.4566 170.457 62.0043 190 50L190 49C170.927 54.6103 151.304 75.4469 143 93L141 93C135.653 76.2503 111.571 52.3881 94 49z"/>
<path style="fill:#40ae9a; stroke:none;" d="M97 49L98 50L97 49z"/>
<path style="fill:#f3bb5a; stroke:none;" d="M186 49L187 50L186 49z"/>
<path style="fill:#40ae9a; stroke:none;" d="M187 49L188 50L187 49M95 50L96 51L95 50z"/>
<path style="fill:#f3bb5a; stroke:none;" d="M99 50L100 51L99 50M184 50L185 51L184 50z"/>
<path style="fill:#40ae9a; stroke:none;" d="M185 50L186 51L185 50z"/>
<path style="fill:#f3bb5a; stroke:none;" d="M189 50L190 51L189 50M96 51L97 52L96 51z"/>
<path style="fill:#40ae9a; stroke:none;" d="M100 51L101 52L100 51z"/>
<path style="fill:#f3bb5a; stroke:none;" d="M101 51L102 52L101 51M183 51L184 52L183 51z"/>
<path style="fill:#40ae9a; stroke:none;" d="M187 51L188 52L187 51M98 52L99 53L98 52M102 52L103 53L102 52z"/>
<path style="fill:#f3bb5a; stroke:none;" d="M181 52L182 53L181 52z"/>
<path style="fill:#40ae9a; stroke:none;" d="M182 52L183 53L182 52M185 52L186 53L185 52z"/>
<path style="fill:#f3bb5a; stroke:none;" d="M186 52L187 53L186 52M99 53L100 54L99 53z"/>
<path style="fill:#40ae9a; stroke:none;" d="M100 53L101 54L100 53z"/>
<path style="fill:#f3bb5a; stroke:none;" d="M104 53L105 54L104 53z"/>
<path style="fill:#40ae9a; stroke:none;" d="M180 53L181 54L180 53M184 53L185 54L184 53z"/>
<path style="fill:#f3bb5a; stroke:none;" d="M80 54L89 63L80 54M88 57L89 57L91 55L88 57M101 54L102 55L101 54z"/>
<path style="fill:#40ae9a; stroke:none;" d="M105 54L106 55L105 54z"/>
<path style="fill:#f3bb5a; stroke:none;" d="M178 54L179 55L178 54z"/>
<path style="fill:#40ae9a; stroke:none;" d="M182 54L183 55L182 54z"/>
<path style="fill:#f3bb5a; stroke:none;" d="M183 54L184 55L183 54z"/>
<path style="fill:#40ae9a; stroke:none;" d="M194 54L195 55L194 54z"/>
<path style="fill:#f3bb5a; stroke:none;" d="M204 54L211 61L204 54z"/>
<path style="fill:#40ae9a; stroke:none;" d="M79 55L74 61L79 55z"/>
<path style="fill:#454546; stroke:none;" d="M80 55L74 61L74 62L142 129L143 129L195 77C201.514 70.486 213.109 63.8831 205 55L204 55L157.985 100.09L142 113.944L125 99L80 55M89 55L116 76.1698L142 109C148.48 102.102 152.754 93.1295 159.171 86C170.071 73.8887 182.52 64.9196 196 56L196 55C175.241 59.7498 151.775 85.4511 143 104L141 104C134.834 84.6831 108.328 60.6854 89 55z"/>
<path style="fill:#40ae9a; stroke:none;" d="M91 55L92 56L91 55z"/>
<path style="fill:#f3bb5a; stroke:none;" d="M92 55L93 56L92 55z"/>
<path style="fill:#40ae9a; stroke:none;" d="M103 55L104 56L103 55z"/>
<path style="fill:#f3bb5a; stroke:none;" d="M107 55L108 56L107 55z"/>
<path style="fill:#40ae9a; stroke:none;" d="M177 55L178 56L177 55z"/>
<path style="fill:#f3bb5a; stroke:none;" d="M181 55L182 56L181 55M192 55L193 56L192 55z"/>
<path style="fill:#40ae9a; stroke:none;" d="M203 55L204 56L203 55M89 56L90 57L89 56z"/>
<path style="fill:#f3bb5a; stroke:none;" d="M93 56L94 57L93 56M104 56L105 57L104 56z"/>
<path style="fill:#40ae9a; stroke:none;" d="M108 56L109 57L108 56z"/>
<path style="fill:#f3bb5a; stroke:none;" d="M175 56L176 57L175 56z"/>
<path style="fill:#40ae9a; stroke:none;" d="M179 56L180 57L179 56z"/>
<path style="fill:#f3bb5a; stroke:none;" d="M180 56L181 57L180 56M190 56L191 57L190 56z"/>
<path style="fill:#40ae9a; stroke:none;" d="M191 56L192 57L191 56M195 56L196 57L195 56M202 56L203 57L202 56z"/>
<path style="fill:#f3bb5a; stroke:none;" d="M90 57L91 58L90 57M95 57L96 58L95 57M105 57L106 58L105 57z"/>
<path style="fill:#40ae9a; stroke:none;" d="M106 57L107 58L106 57z"/>
<path style="fill:#f3bb5a; stroke:none;" d="M110 57L111 58L110 57M174 57L175 58L174 57z"/>
<path style="fill:#40ae9a; stroke:none;" d="M178 57L179 58L178 57z"/>
<path style="fill:#f3bb5a; stroke:none;" d="M188 57L189 58L188 57z"/>
<path style="fill:#40ae9a; stroke:none;" d="M189 57L190 58L189 57M193 57L194 58L193 57z"/>
<path style="fill:#f3bb5a; stroke:none;" d="M194 57L195 58L194 57z"/>
<path style="fill:#40ae9a; stroke:none;" d="M201 57L202 58L201 57z"/>
<path style="fill:#f3bb5a; stroke:none;" d="M92 58L93 59L92 58z"/>
<path style="fill:#40ae9a; stroke:none;" d="M96 58L97 59L96 58z"/>
<path style="fill:#f3bb5a; stroke:none;" d="M97 58L98 59L97 58z"/>
<path style="fill:#40ae9a; stroke:none;" d="M107 58L108 59L107 58M111 58L112 59L111 58M173 58L174 59L173 58z"/>
<path style="fill:#f3bb5a; stroke:none;" d="M177 58L178 59L177 58z"/>
<path style="fill:#40ae9a; stroke:none;" d="M187 58L188 59L187 58z"/>
<path style="fill:#f3bb5a; stroke:none;" d="M192 58L193 59L192 58z"/>
<path style="fill:#40ae9a; stroke:none;" d="M200 58L201 59L200 58z"/>
<path style="fill:#f3bb5a; stroke:none;" d="M93 59L94 60L93 59z"/>
<path style="fill:#40ae9a; stroke:none;" d="M94 59L95 60L94 59M98 59L99 60L98 59z"/>
<path style="fill:#f3bb5a; stroke:none;" d="M108 59L109 60L108 59z"/>
<path style="fill:#40ae9a; stroke:none;" d="M112 59L113 60L112 59z"/>
<path style="fill:#f3bb5a; stroke:none;" d="M171 59L172 60L171 59z"/>
<path style="fill:#40ae9a; stroke:none;" d="M175 59L176 60L175 59z"/>
<path style="fill:#f3bb5a; stroke:none;" d="M185 59L186 60L185 59z"/>
<path style="fill:#40ae9a; stroke:none;" d="M190 59L191 60L190 59M199 59L200 60L199 59z"/>
<path style="fill:#f3bb5a; stroke:none;" d="M95 60L96 61L95 60M100 60L101 61L100 60M109 60L110 61L109 60z"/>
<path style="fill:#40ae9a; stroke:none;" d="M110 60L111 61L110 60z"/>
<path style="fill:#f3bb5a; stroke:none;" d="M114 60L115 61L114 60M170 60L171 61L170 60z"/>
<path style="fill:#40ae9a; stroke:none;" d="M174 60L175 61L174 60M184 60L185 61L184 60M188 60L189 61L188 60z"/>
<path style="fill:#f3bb5a; stroke:none;" d="M189 60L190 61L189 60z"/>
<path style="fill:#40ae9a; stroke:none;" d="M198 60L199 61L198 60M97 61L98 62L97 61M101 61L102 62L101 61M111 61L112 62L111 61z"/>
<path style="fill:#f3bb5a; stroke:none;" d="M115 61L116 62L115 61z"/>
<path style="fill:#40ae9a; stroke:none;" d="M169 61L170 62L169 61z"/>
<path style="fill:#f3bb5a; stroke:none;" d="M173 61L174 62L173 61M182 61L183 62L182 61M187 61L188 62L187 61z"/>
<path style="fill:#40ae9a; stroke:none;" d="M197 61L198 62L197 61M210 61L211 62L210 61z"/>
<path style="fill:#f3bb5a; stroke:none;" d="M74 62L75 63L74 62M98 62L99 63L98 62z"/>
<path style="fill:#40ae9a; stroke:none;" d="M103 62L104 63L103 62z"/>
<path style="fill:#f3bb5a; stroke:none;" d="M112 62L113 63L112 62z"/>
<path style="fill:#40ae9a; stroke:none;" d="M116 62L117 63L116 62M168 62L169 63L168 62z"/>
<path style="fill:#f3bb5a; stroke:none;" d="M172 62L173 63L172 62z"/>
<path style="fill:#40ae9a; stroke:none;" d="M181 62L182 63L181 62M185 62L186 63L185 62M196 62L197 63L196 62M209 62L210 63L209 62z"/>
<path style="fill:#f3bb5a; stroke:none;" d="M75 63L76 64L75 63z"/>
<path style="fill:#40ae9a; stroke:none;" d="M89 63L90 64L89 63M100 63L101 64L100 63M104 63L105 64L104 63z"/>
<path style="fill:#f3bb5a; stroke:none;" d="M113 63L114 64L113 63z"/>
<path style="fill:#40ae9a; stroke:none;" d="M117 63L118 64L117 63z"/>
<path style="fill:#f3bb5a; stroke:none;" d="M166 63L167 64L166 63z"/>
<path style="fill:#40ae9a; stroke:none;" d="M170 63L171 64L170 63z"/>
<path style="fill:#f3bb5a; stroke:none;" d="M179 63L180 64L179 63M184 63L185 64L184 63z"/>
<path style="fill:#40ae9a; stroke:none;" d="M208 63L209 64L208 63z"/>
<path style="fill:#f3bb5a; stroke:none;" d="M76 64L77 65L76 64M90 64L91 65L90 64M101 64L102 65L101 64M106 64L107 65L106 64M114 64L115 65L114 64z"/>
<path style="fill:#40ae9a; stroke:none;" d="M118 64L119 65L118 64z"/>
<path style="fill:#f3bb5a; stroke:none;" d="M165 64L166 65L165 64z"/>
<path style="fill:#40ae9a; stroke:none;" d="M169 64L170 65L169 64M178 64L179 65L178 64z"/>
<path style="fill:#f3bb5a; stroke:none;" d="M183 64L184 65L183 64z"/>
<path style="fill:#40ae9a; stroke:none;" d="M194 64L195 65L194 64M207 64L208 65L207 64z"/>
<path style="fill:#f3bb5a; stroke:none;" d="M77 65L78 66L77 65M91 65L92 66L91 65M102 65L103 66L102 65z"/>
<path style="fill:#40ae9a; stroke:none;" d="M107 65L108 66L107 65z"/>
<path style="fill:#f3bb5a; stroke:none;" d="M115 65L116 66L115 65z"/>
<path style="fill:#40ae9a; stroke:none;" d="M119 65L120 66L119 65z"/>
<path style="fill:#f3bb5a; stroke:none;" d="M164 65L165 66L164 65z"/>
<path style="fill:#40ae9a; stroke:none;" d="M168 65L169 66L168 65z"/>
<path style="fill:#f3bb5a; stroke:none;" d="M176 65L177 66L176 65z"/>
<path style="fill:#40ae9a; stroke:none;" d="M177 65L178 66L177 65M181 65L182 66L181 65M193 65L194 66L193 65M206 65L207 66L206 65z"/>
<path style="fill:#f3bb5a; stroke:none;" d="M78 66L79 67L78 66M92 66L93 67L92 66z"/>
<path style="fill:#40ae9a; stroke:none;" d="M104 66L105 67L104 66M108 66L109 67L108 66M117 66L118 67L117 66z"/>
<path style="fill:#f3bb5a; stroke:none;" d="M163 66L164 67L163 66M167 66L168 67L167 66M175 66L176 67L175 66M180 66L181 67L180 66z"/>
<path style="fill:#40ae9a; stroke:none;" d="M192 66L193 67L192 66M205 66L206 67L205 66z"/>
<path style="fill:#f3bb5a; stroke:none;" d="M93 67L94 68L93 67M105 67L106 68L105 67M110 67L111 68L110 67z"/>
<path style="fill:#40ae9a; stroke:none;" d="M118 67L119 68L118 67z"/>
<path style="fill:#f3bb5a; stroke:none;" d="M122 67L123 68L122 67M162 67L163 68L162 67M166 67L167 68L166 67z"/>
<path style="fill:#40ae9a; stroke:none;" d="M174 67L175 68L174 67M178 67L179 68L178 67M191 67L192 68L191 67M204 67L205 68L204 67z"/>
<path style="fill:#f3bb5a; stroke:none;" d="M80 68L81 69L80 68M94 68L95 69L94 68M106 68L107 69L106 68M111 68L112 69L111 68z"/>
<path style="fill:#40ae9a; stroke:none;" d="M119 68L120 69L119 68z"/>
<path style="fill:#f3bb5a; stroke:none;" d="M161 68L162 69L161 68M165 68L166 69L165 68z"/>
<path style="fill:#40ae9a; stroke:none;" d="M173 68L174 69L173 68M177 68L178 69L177 68M203 68L204 69L203 68z"/>
<path style="fill:#f3bb5a; stroke:none;" d="M81 69L82 70L81 69M95 69L96 70L95 69z"/>
<path style="fill:#40ae9a; stroke:none;" d="M108 69L109 70L108 69M112 69L113 70L112 69M120 69L121 70L120 69z"/>
<path style="fill:#f3bb5a; stroke:none;" d="M160 69L161 70L160 69M164 69L165 70L164 69M171 69L172 70L171 69M176 69L177 70L176 69z"/>
<path style="fill:#40ae9a; stroke:none;" d="M189 69L190 70L189 69M202 69L203 70L202 69z"/>
<path style="fill:#f3bb5a; stroke:none;" d="M82 70L83 71L82 70M96 70L97 71L96 70z"/>
<path style="fill:#40ae9a; stroke:none;" d="M109 70L110 71L109 70M113 70L114 71L113 70M121 70L122 71L121 70z"/>
<path style="fill:#f3bb5a; stroke:none;" d="M159 70L160 71L159 70M163 70L164 71L163 70M170 70L171 71L170 70M175 70L176 71L175 70z"/>
<path style="fill:#40ae9a; stroke:none;" d="M188 70L189 71L188 70M201 70L202 71L201 70M97 71L98 72L97 71z"/>
<path style="fill:#f3bb5a; stroke:none;" d="M110 71L111 72L110 71M115 71L116 72L115 71z"/>
<path style="fill:#40ae9a; stroke:none;" d="M122 71L123 72L122 71z"/>
<path style="fill:#f3bb5a; stroke:none;" d="M158 71L159 72L158 71M162 71L163 72L162 71M169 71L170 72L169 71z"/>
<path style="fill:#40ae9a; stroke:none;" d="M173 71L174 72L173 71M187 71L188 72L187 71M200 71L201 72L200 71M98 72L99 73L98 72z"/>
<path style="fill:#f3bb5a; stroke:none;" d="M111 72L112 73L111 72M116 72L117 73L116 72z"/>
<path style="fill:#40ae9a; stroke:none;" d="M123 72L124 73L123 72z"/>
<path style="fill:#f3bb5a; stroke:none;" d="M157 72L158 73L157 72M161 72L162 73L161 72z"/>
<path style="fill:#40ae9a; stroke:none;" d="M168 72L169 73L168 72M172 72L173 73L172 72M199 72L200 73L199 72z"/>
<path style="fill:#f3bb5a; stroke:none;" d="M85 73L86 74L85 73M99 73L100 74L99 73M112 73L113 74L112 73M117 73L118 74L117 73z"/>
<path style="fill:#40ae9a; stroke:none;" d="M124 73L125 74L124 73M127 73L128 74L127 73z"/>
<path style="fill:#f3bb5a; stroke:none;" d="M156 73L157 74L156 73M160 73L161 74L160 73z"/>
<path style="fill:#40ae9a; stroke:none;" d="M167 73L168 74L167 73M171 73L172 74L171 73M185 73L186 74L185 73M198 73L199 74L198 73z"/>
<path style="fill:#f3bb5a; stroke:none;" d="M86 74L87 75L86 74z"/>
<path style="fill:#40ae9a; stroke:none;" d="M100 74L101 75L100 74M114 74L115 75L114 74z"/>
<path style="fill:#f3bb5a; stroke:none;" d="M118 74L119 75L118 74z"/>
<path style="fill:#40ae9a; stroke:none;" d="M125 74L126 75L125 74M128 74L129 75L128 74z"/>
<path style="fill:#f3bb5a; stroke:none;" d="M155 74L156 75L155 74M159 74L160 75L159 74z"/>
<path style="fill:#40ae9a; stroke:none;" d="M166 74L167 75L166 74M170 74L171 75L170 74M184 74L185 75L184 74M197 74L198 75L197 74z"/>
<path style="fill:#f3bb5a; stroke:none;" d="M87 75L88 76L87 75z"/>
<path style="fill:#40ae9a; stroke:none;" d="M101 75L102 76L101 75M115 75L116 76L115 75z"/>
<path style="fill:#f3bb5a; stroke:none;" d="M119 75L120 76L119 75z"/>
<path style="fill:#40ae9a; stroke:none;" d="M126 75L127 76L126 75M129 75L130 76L129 75M158 75L159 76L158 75M165 75L166 76L165 75z"/>
<path style="fill:#f3bb5a; stroke:none;" d="M169 75L170 76L169 75z"/>
<path style="fill:#40ae9a; stroke:none;" d="M183 75L184 76L183 75M196 75L197 76L196 75M102 76L103 77L102 76M116 76L117 77L116 76z"/>
<path style="fill:#f3bb5a; stroke:none;" d="M120 76L121 77L120 76M130 76L131 77L130 76z"/>
<path style="fill:#40ae9a; stroke:none;" d="M157 76L158 77L157 76z"/>
<path style="fill:#f3bb5a; stroke:none;" d="M168 76L169 77L168 76z"/>
<path style="fill:#40ae9a; stroke:none;" d="M195 76L196 77L195 76M103 77L104 78L103 77M117 77L118 78L117 77z"/>
<path style="fill:#f3bb5a; stroke:none;" d="M121 77L122 78L121 77M127 77L128 78L127 77M131 77L132 78L131 77z"/>
<path style="fill:#40ae9a; stroke:none;" d="M153 77L154 78L153 77M156 77L157 78L156 77M163 77L164 78L163 77z"/>
<path style="fill:#f3bb5a; stroke:none;" d="M167 77L168 78L167 77z"/>
<path style="fill:#40ae9a; stroke:none;" d="M181 77L182 78L181 77M194 77L195 78L194 77M104 78L105 79L104 78M118 78L119 79L118 78z"/>
<path style="fill:#f3bb5a; stroke:none;" d="M122 78L123 79L122 78M128 78L129 79L128 78M152 78L153 79L152 78z"/>
<path style="fill:#40ae9a; stroke:none;" d="M162 78L163 79L162 78z"/>
<path style="fill:#f3bb5a; stroke:none;" d="M166 78L167 79L166 78z"/>
<path style="fill:#40ae9a; stroke:none;" d="M180 78L181 79L180 78M193 78L194 79L193 78M105 79L106 80L105 79M119 79L120 80L119 79z"/>
<path style="fill:#f3bb5a; stroke:none;" d="M123 79L124 80L123 79M129 79L130 80L129 79z"/>
<path style="fill:#40ae9a; stroke:none;" d="M132 79L133 80L132 79z"/>
<path style="fill:#f3bb5a; stroke:none;" d="M151 79L152 80L151 79z"/>
<path style="fill:#40ae9a; stroke:none;" d="M161 79L162 80L161 79z"/>
<path style="fill:#f3bb5a; stroke:none;" d="M165 79L166 80L165 79z"/>
<path style="fill:#40ae9a; stroke:none;" d="M179 79L180 80L179 79M192 79L193 80L192 79M106 80L107 81L106 80M120 80L121 81L120 80z"/>
<path style="fill:#f3bb5a; stroke:none;" d="M124 80L125 81L124 80z"/>
<path style="fill:#40ae9a; stroke:none;" d="M130 80L131 81L130 80M133 80L134 81L133 80z"/>
<path style="fill:#f3bb5a; stroke:none;" d="M154 80L155 81L154 80z"/>
<path style="fill:#40ae9a; stroke:none;" d="M160 80L161 81L160 80z"/>
<path style="fill:#f3bb5a; stroke:none;" d="M164 80L165 81L164 80z"/>
<path style="fill:#40ae9a; stroke:none;" d="M191 80L192 81L191 80z"/>
<path style="fill:#f3bb5a; stroke:none;" d="M93 81L94 82L93 81z"/>
<path style="fill:#40ae9a; stroke:none;" d="M107 81L108 82L107 81M121 81L122 82L121 81z"/>
<path style="fill:#f3bb5a; stroke:none;" d="M125 81L126 82L125 81M134 81L135 82L134 81z"/>
<path style="fill:#40ae9a; stroke:none;" d="M150 81L151 82L150 81z"/>
<path style="fill:#f3bb5a; stroke:none;" d="M153 81L154 82L153 81z"/>
<path style="fill:#40ae9a; stroke:none;" d="M159 81L160 82L159 81z"/>
<path style="fill:#f3bb5a; stroke:none;" d="M163 81L164 82L163 81z"/>
<path style="fill:#40ae9a; stroke:none;" d="M190 81L191 82L190 81M108 82L109 83L108 82M122 82L123 83L122 82z"/>
<path style="fill:#f3bb5a; stroke:none;" d="M126 82L127 83L126 82M131 82L132 83L131 82M135 82L136 83L135 82z"/>
<path style="fill:#40ae9a; stroke:none;" d="M149 82L150 83L149 82M152 82L153 83L152 82M158 82L159 83L158 82z"/>
<path style="fill:#f3bb5a; stroke:none;" d="M162 82L163 83L162 82z"/>
<path style="fill:#40ae9a; stroke:none;" d="M189 82L190 83L189 82M109 83L110 84L109 83M123 83L124 84L123 83z"/>
<path style="fill:#f3bb5a; stroke:none;" d="M127 83L128 84L127 83M132 83L133 84L132 83z"/>
<path style="fill:#40ae9a; stroke:none;" d="M135 83L136 84L135 83z"/>
<path style="fill:#f3bb5a; stroke:none;" d="M148 83L149 84L148 83M157 83L158 84L157 83M161 83L162 84L161 83z"/>
<path style="fill:#40ae9a; stroke:none;" d="M175 83L176 84L175 83M188 83L189 84L188 83M110 84L111 85L110 84M133 84L134 85L133 84M136 84L137 85L136 84z"/>
<path style="fill:#f3bb5a; stroke:none;" d="M151 84L152 85L151 84M156 84L157 85L156 84z"/>
<path style="fill:#40ae9a; stroke:none;" d="M160 84L161 85L160 84M187 84L188 85L187 84M111 85L112 86L111 85M128 85L129 86L128 85M134 85L135 86L134 85z"/>
<path style="fill:#f3bb5a; stroke:none;" d="M137 85L138 86L137 85z"/>
<path style="fill:#40ae9a; stroke:none;" d="M147 85L148 86L147 85z"/>
<path style="fill:#f3bb5a; stroke:none;" d="M150 85L151 86L150 85M155 85L156 86L155 85z"/>
<path style="fill:#40ae9a; stroke:none;" d="M159 85L160 86L159 85M186 85L187 86L186 85M112 86L113 87L112 86z"/>
<path style="fill:#f3bb5a; stroke:none;" d="M125 86L126 87L125 86z"/>
<path style="fill:#40ae9a; stroke:none;" d="M129 86L130 87L129 86z"/>
<path style="fill:#f3bb5a; stroke:none;" d="M134 86L135 87L134 86z"/>
<path style="fill:#40ae9a; stroke:none;" d="M146 86L147 87L146 86M149 86L150 87L149 86M158 86L159 87L158 86M185 86L186 87L185 86M113 87L114 88L113 87z"/>
<path style="fill:#f3bb5a; stroke:none;" d="M126 87L127 88L126 87M130 87L131 88L130 87M135 87L136 88L135 87z"/>
<path style="fill:#40ae9a; stroke:none;" d="M138 87L139 88L138 87z"/>
<path style="fill:#f3bb5a; stroke:none;" d="M145 87L146 88L145 87M149 87L150 88L149 87z"/>
<path style="fill:#40ae9a; stroke:none;" d="M154 87L155 88L154 87M157 87L158 88L157 87M171 87L172 88L171 87M184 87L185 88L184 87z"/>
<path style="fill:#f3bb5a; stroke:none;" d="M228 87L228 88L233 88L234 114C235.648 107.138 236.665 87.6751 228 87z"/>
<path style="fill:#40ae9a; stroke:none;" d="M114 88L115 89L114 88M127 88L128 89L127 88z"/>
<path style="fill:#f3bb5a; stroke:none;" d="M131 88L132 89L131 88z"/>
<path style="fill:#40ae9a; stroke:none;" d="M136 88L137 89L136 88z"/>
<path style="fill:#f3bb5a; stroke:none;" d="M139 88L140 89L139 88z"/>
<path style="fill:#40ae9a; stroke:none;" d="M145 88L146 89L145 88z"/>
<path style="fill:#f3bb5a; stroke:none;" d="M148 88L149 89L148 88z"/>
<path style="fill:#40ae9a; stroke:none;" d="M153 88L154 89L153 88z"/>
<path style="fill:#f3bb5a; stroke:none;" d="M157 88L158 89L157 88z"/>
<path style="fill:#40ae9a; stroke:none;" d="M170 88L171 89L170 88M183 88L184 89L183 88z"/>
<path style="fill:#f3bb5a; stroke:none;" d="M209 88C211.128 96.9388 207.195 104.958 219 105L219 104L211 104L209 88M219 88L219 89L225 90L225 89L219 88z"/>
<path style="fill:#40ae9a; stroke:none;" d="M221 88L221 89L228 89L221 88z"/>
<path style="fill:#454546; stroke:none;" d="M225 89L225 90L227 103L226 136L234 136L233 88L225 89z"/>
<path style="fill:#40ae9a; stroke:none;" d="M115 89L116 90L115 89M128 89L129 90L128 89z"/>
<path style="fill:#f3bb5a; stroke:none;" d="M136 89L137 90L136 89M144 89L145 90L144 89z"/>
<path style="fill:#40ae9a; stroke:none;" d="M147 89L148 90L147 89z"/>
<path style="fill:#f3bb5a; stroke:none;" d="M152 89L153 90L152 89M156 89L157 90L156 89z"/>
<path style="fill:#40ae9a; stroke:none;" d="M182 89L183 90L182 89M209 89L210 90L209 89z"/>
<path style="fill:#f3bb5a; stroke:none;" d="M92 90L93 91L92 90z"/>
<path style="fill:#40ae9a; stroke:none;" d="M116 90L117 91L116 90M129 90L130 91L129 90M132 90L133 91L132 90M137 90L138 91L137 90M140 90L141 91L140 90z"/>
<path style="fill:#f3bb5a; stroke:none;" d="M151 90L152 91L151 90M155 90L156 91L155 90z"/>
<path style="fill:#40ae9a; stroke:none;" d="M181 90L182 91L181 90z"/>
<path style="fill:#f3bb5a; stroke:none;" d="M191 90L170 112L179 105C182.068 114.678 179.694 125.437 168 127L168 128L170 136L155.028 137.603L154 158L154 213L155 213L155 137L177 136C184.466 167.358 174.489 203.064 178 235L162 235L162 236L192 236L192 226C214.546 242.148 238.76 242.072 259 222C259 225.357 257.821 231.611 260.028 234.397C263.253 238.468 278.14 236 283 236L283 180L282 180L282 235L260 235L260 137L268 137L268 136L235 135L235 136L237 136L237 137L222 137L222 136L224 136L224 135L217 136L218 132L217 132L215 134L214 137L207 135L192 147L192 108L191 90z"/>
<path style="fill:#454546; stroke:none;" d="M209 90C208.411 96.6975 205.45 101.126 200 105L200 106C211.585 112.388 195.076 134.369 213 136L213 135C207.029 129.153 210 113.954 210 106L218 106L218 105L210 105L209 90z"/>
<path style="fill:#40ae9a; stroke:none;" d="M226.333 90.6667L226.667 91.3333L226.333 90.6667M92 91L92 181L92 235L156 236L163 234L161.972 214.753L150 213.003L116 213L116 144C116 134.987 118.528 121.482 115.397 113C112.681 105.646 99.2233 93.9035 92 91M117 91L118 92L117 91M133 91L134 92L133 91M138 91L139 92L138 91z"/>
<path style="fill:#f3bb5a; stroke:none;" d="M141 91L142 92L141 91z"/>
<path style="fill:#40ae9a; stroke:none;" d="M143 91L144 92L143 91z"/>
<path style="fill:#f3bb5a; stroke:none;" d="M146 91L147 92L146 91z"/>
<path style="fill:#40ae9a; stroke:none;" d="M154 91L155 92L154 91M180 91L181 92L180 91z"/>
<path style="fill:#f3bb5a; stroke:none;" d="M208.333 91.6667L208.667 92.3333L208.333 91.6667z"/>
<path style="fill:#40ae9a; stroke:none;" d="M118 92L119 93L118 92z"/>
<path style="fill:#f3bb5a; stroke:none;" d="M130 92L131 93L130 92M134 92L135 93L134 92M138 92L139 93L138 92z"/>
<path style="fill:#40ae9a; stroke:none;" d="M141.667 92.3333L142.333 92.6667L141.667 92.3333M145 92L146 93L145 92M150 92L151 93L150 92M153 92L154 93L153 92M166 92L167 93L166 92M179 92L180 93L179 92z"/>
<path style="fill:#f3bb5a; stroke:none;" d="M226 92L226 134L227 134C227 122.043 230.611 102.988 226 92z"/>
<path style="fill:#40ae9a; stroke:none;" d="M119 93L120 94L119 93z"/>
<path style="fill:#f3bb5a; stroke:none;" d="M131 93L132 94L131 93M135 93L136 94L135 93z"/>
<path style="fill:#40ae9a; stroke:none;" d="M139 93L140 94L139 93z"/>
<path style="fill:#f3bb5a; stroke:none;" d="M145 93L146 94L145 93z"/>
<path style="fill:#40ae9a; stroke:none;" d="M149 93L150 94L149 93M178 93L179 94L178 93M208.333 93.6667L208.667 94.3333L208.333 93.6667M120 94L121 95L120 94M132 94L133 95L132 94M135 94L136 95L135 94M144 94L145 95L144 94z"/>
<path style="fill:#f3bb5a; stroke:none;" d="M148 94L149 95L148 94M152 94L153 95L152 94z"/>
<path style="fill:#40ae9a; stroke:none;" d="M177 94L178 95L177 94M108 95L109 96L108 95M121 95L122 96L121 95M136 95L137 96L136 95z"/>
<path style="fill:#f3bb5a; stroke:none;" d="M140 95L141 96L140 95z"/>
<path style="fill:#40ae9a; stroke:none;" d="M151 95L152 96L151 95M176 95L177 96L176 95M109 96L110 97L109 96M122 96L123 97L122 96z"/>
<path style="fill:#f3bb5a; stroke:none;" d="M133 96L134 97L133 96M137 96L138 97L137 96z"/>
<path style="fill:#40ae9a; stroke:none;" d="M141 96L143 98L141 96z"/>
<path style="fill:#f3bb5a; stroke:none;" d="M143 96L144 97L143 96z"/>
<path style="fill:#40ae9a; stroke:none;" d="M147 96L148 97L147 96M150 96L151 97L150 96M162 96L163 97L162 96z"/>
<path style="fill:#f3bb5a; stroke:none;" d="M175 96L176 97L175 96M207 96L208 97L207 96z"/>
<path style="fill:#40ae9a; stroke:none;" d="M123 97L124 98L123 97M134 97L135 98L134 97z"/>
<path style="fill:#f3bb5a; stroke:none;" d="M141 97L142 98L141 97M146 97L147 98L146 97M150 97L151 98L150 97z"/>
<path style="fill:#40ae9a; stroke:none;" d="M174 97L175 98L174 97M207 97L208 98L207 97z"/>
<path style="fill:#f3bb5a; stroke:none;" d="M101 98L102 99L101 98z"/>
<path style="fill:#40ae9a; stroke:none;" d="M124 98L125 99L124 98M135 98L136 99L135 98M138 98L139 99L138 98z"/>
<path style="fill:#f3bb5a; stroke:none;" d="M149 98L150 99L149 98M173 98L174 99L173 98M206 98L207 99L206 98M102 99L103 100L102 99z"/>
<path style="fill:#40ae9a; stroke:none;" d="M112 99L113 100L112 99M125 99L126 100L125 99z"/>
<path style="fill:#f3bb5a; stroke:none;" d="M135 99L136 100L135 99M139 99L140 100L139 99z"/>
<path style="fill:#40ae9a; stroke:none;" d="M145 99L146 100L145 99M148 99L149 100L148 99z"/>
<path style="fill:#f3bb5a; stroke:none;" d="M172 99L173 100L172 99z"/>
<path style="fill:#40ae9a; stroke:none;" d="M206 99L207 100L206 99M113 100L114 101L113 100M126 100L127 101L126 100M136 100L137 101L136 100z"/>
<path style="fill:#f3bb5a; stroke:none;" d="M144 100L145 101L144 100M148 100L149 101L148 100z"/>
<path style="fill:#40ae9a; stroke:none;" d="M171 100L172 101L171 100z"/>
<path style="fill:#f3bb5a; stroke:none;" d="M205 100L206 101L205 100z"/>
<path style="fill:#d25b65; stroke:none;" d="M114 101L115 102L114 101z"/>
<path style="fill:#40ae9a; stroke:none;" d="M127 101L128 102L127 101M140 101L141 102L140 101z"/>
<path style="fill:#f3bb5a; stroke:none;" d="M147 101L148 102L147 101M170 101L171 102L170 101M204 101L205 102L204 101z"/>
<path style="fill:#40ae9a; stroke:none;" d="M128 102L129 103L128 102z"/>
<path style="fill:#f3bb5a; stroke:none;" d="M137 102L138 103L137 102M141 102L143 104L141 102z"/>
<path style="fill:#40ae9a; stroke:none;" d="M143 102L144 103L143 102M146 102L147 103L146 102z"/>
<path style="fill:#f3bb5a; stroke:none;" d="M169 102L170 103L169 102M203 102L204 103L203 102z"/>
<path style="fill:#40ae9a; stroke:none;" d="M116 103L117 104L116 103M129 103L130 104L129 103M138 103L139 104L138 103M141 103L142 104L141 103z"/>
<path style="fill:#f3bb5a; stroke:none;" d="M168 103L169 104L168 103M202 103L203 104L202 103M269 103L269 104L276 107L269 103M107 104L108 105L107 104z"/>
<path style="fill:#40ae9a; stroke:none;" d="M117 104L118 105L117 104M130 104L131 105L130 104M145 104L146 105L145 104z"/>
<path style="fill:#f3bb5a; stroke:none;" d="M167 104L168 105L167 104M200 104L201 105L200 104z"/>
<path style="fill:#40ae9a; stroke:none;" d="M201 104L202 105L201 104M210 104L211 105L210 104z"/>
<path style="fill:#f3bb5a; stroke:none;" d="M235 108L235 109L244 106C240.407 103.413 238.213 105.689 235 108z"/>
<path style="fill:#40ae9a; stroke:none;" d="M243 104L246 107L243 104z"/>
<path style="fill:#f3bb5a; stroke:none;" d="M245.667 104.333L246.333 104.667L245.667 104.333M266 104L267 105L266 104z"/>
<path style="fill:#40ae9a; stroke:none;" d="M267 104L267 105L270 105L267 104M274 104L276 106L276 104L274 104z"/>
<path style="fill:#f3bb5a; stroke:none;" d="M276 104L277 105L276 104z"/>
<path style="fill:#40ae9a; stroke:none;" d="M118 105L119 106L118 105M131 105L132 106L131 105z"/>
<path style="fill:#f3bb5a; stroke:none;" d="M139 105L140 106L139 105M166 105L167 106L166 105z"/>
<path style="fill:#d25b65; stroke:none;" d="M158 126C172.592 130.099 185.654 120.77 179 105C171.444 108.519 160.301 117.804 158 126z"/>
<path style="fill:#f3bb5a; stroke:none;" d="M197.333 105.667L197.667 106.333L197.333 105.667z"/>
<path style="fill:#40ae9a; stroke:none;" d="M198 105L201 107L198 105M218 105L217 107L218 105z"/>
<path style="fill:#f1f4f4; stroke:none;" d="M234 135L246 135C246 129.367 249.041 109.357 243.566 106.238C240.14 104.286 236.886 108.304 235.573 111.005C232.284 117.765 234 127.67 234 135z"/>
<path style="fill:#454546; stroke:none;" d="M245 105C248.273 113.981 248.212 126.708 246 136L254 136C251.605 125.939 257.861 108.388 245 105z"/>
<path style="fill:#40ae9a; stroke:none;" d="M247.667 105.333L248.333 105.667L247.667 105.333z"/>
<path style="fill:#f3bb5a; stroke:none;" d="M249 105L250 106L249 105M264 105L263 107L264 105z"/>
<path style="fill:#40ae9a; stroke:none;" d="M265 105L266 106L265 105z"/>
<path style="fill:#454546; stroke:none;" d="M268 135C263.643 124.322 262.665 115.556 268 105C254.237 109.692 253.728 130.725 268 135z"/>
<path style="fill:#f3bb5a; stroke:none;" d="M268 105L267 107L268 105z"/>
<path style="fill:#f1f4f4; stroke:none;" d="M265 119L277 119C276.998 102.696 265.133 102.915 265 119z"/>
<path style="fill:#454546; stroke:none;" d="M276 105L278 120L284 120C283.478 113.616 281.866 108.21 276 105z"/>
<path style="fill:#40ae9a; stroke:none;" d="M277 105L278 106L277 105z"/>
<path style="fill:#f3bb5a; stroke:none;" d="M278 105L279 106L278 105z"/>
<path style="fill:#40ae9a; stroke:none;" d="M119 106L120 107L119 106M132 106L133 107L132 106M140 106L141 107L140 106z"/>
<path style="fill:#f3bb5a; stroke:none;" d="M144 106L145 107L144 106M165 106L166 107L165 106M201 106L202 107L201 106z"/>
<path style="fill:#40ae9a; stroke:none;" d="M202 106L203 107L202 106M210 106L211 107L210 106z"/>
<path style="fill:#f3bb5a; stroke:none;" d="M211 106L211 107L217 107L211 106M218 106L219 107L218 106z"/>
<path style="fill:#40ae9a; stroke:none;" d="M237 106L238 107L237 106z"/>
<path style="fill:#f3bb5a; stroke:none;" d="M250 106L251 107L250 106M279 106L280 107L279 106z"/>
<path style="fill:#40ae9a; stroke:none;" d="M133 107L134 108L133 107z"/>
<path style="fill:#f3bb5a; stroke:none;" d="M140 107L141 108L140 107z"/>
<path style="fill:#40ae9a; stroke:none;" d="M143 107L144 108L143 107z"/>
<path style="fill:#f3bb5a; stroke:none;" d="M164 107L165 108L164 107z"/>
<path style="fill:#40ae9a; stroke:none;" d="M203 107L203 131L204 131L203 107z"/>
<path style="fill:#f3bb5a; stroke:none;" d="M210 107L210 133L211 133L210 107z"/>
<path style="fill:#40ae9a; stroke:none;" d="M236 107L237 108L236 107z"/>
<path style="fill:#f3bb5a; stroke:none;" d="M245 107L246 108L245 107M251 107L252 108L251 107z"/>
<path style="fill:#40ae9a; stroke:none;" d="M262 107L263 108L262 107M266 107L267 108L266 107M276 107L277 108L276 107z"/>
<path style="fill:#f3bb5a; stroke:none;" d="M280 107L281 108L280 107z"/>
<path style="fill:#40ae9a; stroke:none;" d="M121 108L122 109L121 108M134 108L135 109L134 108M141 108L142 109L141 108z"/>
<path style="fill:#f3bb5a; stroke:none;" d="M143 108L144 109L143 108M163 108L164 109L163 108z"/>
<path style="fill:#40ae9a; stroke:none;" d="M246 108L246 135L247 135L246 108M261 108L262 109L261 108z"/>
<path style="fill:#f3bb5a; stroke:none;" d="M276 108L277 109L276 108M281 108L282 109L281 108M949 108L949 109L952 110L949 108M1004 108L1005 109L1004 108z"/>
<path style="fill:#40ae9a; stroke:none;" d="M122 109L123 110L122 109M135 109L136 110L135 109z"/>
<path style="fill:#f3bb5a; stroke:none;" d="M141.667 109.333L142.333 109.667L141.667 109.333M148 109L149 110L148 109M162 109L163 110L162 109z"/>
<path style="fill:#40ae9a; stroke:none;" d="M235 109L234 112L235 112L235 109M252 109L253 110L252 109z"/>
<path style="fill:#f3bb5a; stroke:none;" d="M260 109L261 110L260 109z"/>
<path style="fill:#40ae9a; stroke:none;" d="M265 109L266 110L265 109M277 109L277 112L278 112L277 109M281 109L282 110L281 109z"/>
<path style="fill:#454546; stroke:none;" d="M949 109L949 116L972 115C972 125.136 974.007 137.544 970 147L984 147L982 115L1005 116L1005 109C989.161 112.771 964.984 111.967 949 109z"/>
<path style="fill:#40ae9a; stroke:none;" d="M1003 109L1004 110L1003 109M1005 109L1004 117L1005 117L1005 109M123 110L124 111L123 110M136 110L137 111L136 110z"/>
<path style="fill:#f3bb5a; stroke:none;" d="M147 110L148 111L147 110M161 110L162 111L161 110M235 110L236 111L235 110M259 110L260 111L259 110M265.333 110.667L265.667 111.333L265.333 110.667M282 110L283 111L282 110z"/>
<path style="fill:#454546; stroke:none;" d="M612 110C613.269 114.934 609.45 118.204 606.63 122C600.617 130.092 592.9 138.289 588 147L600 147C601.348 131.03 636.663 132.8 640 147L654 147C647.09 135.906 628.712 123.84 628 110L612 110M704 110C708.085 119.641 707.723 137.283 704 147L718 147L716 131C727.129 131 739.169 132.295 750 129.239C754.842 127.873 760.684 123.812 757.806 118.044C755.201 112.825 748.204 111.56 743 110.951C730.08 109.437 717.005 110 704 110z"/>
<path style="fill:#40ae9a; stroke:none;" d="M739 110L739 111L742 111L739 110z"/>
<path style="fill:#f3bb5a; stroke:none;" d="M742.667 110.333L743.333 110.667L742.667 110.333z"/>
<path style="fill:#454546; stroke:none;" d="M812 110C817.409 119.833 816.276 136.501 813 147L826 147C822.277 137.283 821.915 119.641 826 110L812 110z"/>
<path style="fill:#f3bb5a; stroke:none;" d="M826.333 110.667L826.667 111.333L826.333 110.667M883 110L884 111L883 110z"/>
<path style="fill:#454546; stroke:none;" d="M884 110C888.261 118.044 888.317 138.996 884 147L898 147C894.034 137.641 894.034 119.359 898 110L884 110z"/>
<path style="fill:#f3bb5a; stroke:none;" d="M898 110L899 111L898 110z"/>
<path style="fill:#40ae9a; stroke:none;" d="M124 111L125 112L124 111M137 111L138 112L137 111z"/>
<path style="fill:#f3bb5a; stroke:none;" d="M146 111L147 112L146 111M160 111L161 112L160 111z"/>
<path style="fill:#40ae9a; stroke:none;" d="M259 111L260 112L259 111M282 111L283 112L282 111M612 111L613 112L612 111M704 111L705 112L704 111M747 111L748 112L747 111z"/>
<path style="fill:#f3bb5a; stroke:none;" d="M748 111L749 112L748 111z"/>
<path style="fill:#40ae9a; stroke:none;" d="M812 111L813 112L812 111M825 111L826 112L825 111M884 111L885 112L884 111M897 111L898 112L897 111M125 112L126 113L125 112M138 112L139 113L138 112z"/>
<path style="fill:#f3bb5a; stroke:none;" d="M145 112L146 113L145 112M159 112L160 113L159 112z"/>
<path style="fill:#40ae9a; stroke:none;" d="M233 112L234 113L233 112z"/>
<path style="fill:#f3bb5a; stroke:none;" d="M253 112L253 135L254 135L253 112M258 112L259 113L258 112M277 112L277 119L278 119L277 112z"/>
<path style="fill:#40ae9a; stroke:none;" d="M613 112L614 113L613 112z"/>
<path style="fill:#d25b65; stroke:none;" d="M750 112L751 113L750 112z"/>
<path style="fill:#f3bb5a; stroke:none;" d="M751 112L752 113L751 112M824 112L825 113L824 112z"/>
<path style="fill:#40ae9a; stroke:none;" d="M126 113L127 114L126 113M139 113L140 114L139 113z"/>
<path style="fill:#f3bb5a; stroke:none;" d="M144 113L145 114L144 113M158 113L159 114L158 113z"/>
<path style="fill:#40ae9a; stroke:none;" d="M258 113L259 114L258 113M264 113L264 126L265 126L265 120L278 120L278 119L265 119L264 113z"/>
<path style="fill:#f3bb5a; stroke:none;" d="M283.333 113.667L283.667 114.333L283.333 113.667M627 113L628 114L627 113z"/>
<path style="fill:#40ae9a; stroke:none;" d="M753 113L754 114L753 113M814 113L814 144L815 144L814 113M886 113L887 114L886 113M127 114L128 115L127 114M140 114L141 115L140 114z"/>
<path style="fill:#f3bb5a; stroke:none;" d="M143 114L144 115L143 114M157 114L158 115L157 114z"/>
<path style="fill:#40ae9a; stroke:none;" d="M612 114L613 115L612 114z"/>
<path style="fill:#f3bb5a; stroke:none;" d="M755 114L756 115L755 114z"/>
<path style="fill:#40ae9a; stroke:none;" d="M128 115L129 116L128 115M141 115L142 116L141 115z"/>
<path style="fill:#f3bb5a; stroke:none;" d="M142 115L143 116L142 115M156 115L157 116L156 115z"/>
<path style="fill:#40ae9a; stroke:none;" d="M233 115L234 116L233 115z"/>
<path style="fill:#f3bb5a; stroke:none;" d="M257 115L258 116L257 115z"/>
<path style="fill:#40ae9a; stroke:none;" d="M283 115L284 116L283 115z"/>
<path style="fill:#f3bb5a; stroke:none;" d="M611 115L612 116L611 115z"/>
<path style="fill:#40ae9a; stroke:none;" d="M716 115L716 116L735 116L716 115z"/>
<path style="fill:#f3bb5a; stroke:none;" d="M756 115L757 116L756 115z"/>
<path style="fill:#40ae9a; stroke:none;" d="M886 115L887 116L886 115M951 115L952 116L951 115z"/>
<path style="fill:#f3bb5a; stroke:none;" d="M952 115L953 116L952 115M982 115L983 116L982 115M1002 115L1003 116L1002 115z"/>
<path style="fill:#40ae9a; stroke:none;" d="M129 116L130 117L129 116z"/>
<path style="fill:#f3bb5a; stroke:none;" d="M155 116L156 117L155 116M233 116L233 134L234 134L233 116z"/>
<path style="fill:#40ae9a; stroke:none;" d="M257 116L257 119L258 119L257 116M629 116L630 117L629 116z"/>
<path style="fill:#f1f4f4; stroke:none;" d="M716 116L716 126C724.268 125.219 732.695 125.381 741 124.96C743.61 124.827 748.534 124.391 748.963 120.975C749.393 117.55 744.343 116.823 741.999 116.44C733.605 115.067 724.491 116 716 116z"/>
<path style="fill:#f3bb5a; stroke:none;" d="M742.667 116.333L743.333 116.667L742.667 116.333z"/>
<path style="fill:#40ae9a; stroke:none;" d="M744 116L745 117L744 116z"/>
<path style="fill:#f3bb5a; stroke:none;" d="M757 116L758 117L757 116z"/>
<path style="fill:#40ae9a; stroke:none;" d="M949.667 116.333L950.333 116.667L949.667 116.333z"/>
<path style="fill:#f3bb5a; stroke:none;" d="M1005 116L1006 117L1005 116z"/>
<path style="fill:#40ae9a; stroke:none;" d="M130 117L131 118L130 117z"/>
<path style="fill:#f3bb5a; stroke:none;" d="M154 117L155 118L154 117z"/>
<path style="fill:#f1f4f4; stroke:none;" d="M619 117L609 132L630 132L619 117z"/>
<path style="fill:#40ae9a; stroke:none;" d="M620 117L621 118L620 117z"/>
<path style="fill:#f3bb5a; stroke:none;" d="M630 117L631 118L630 117z"/>
<path style="fill:#40ae9a; stroke:none;" d="M747 117L748 118L747 117M131 118L132 119L131 118z"/>
<path style="fill:#f3bb5a; stroke:none;" d="M153 118L154 119L153 118z"/>
<path style="fill:#40ae9a; stroke:none;" d="M609 118L610 119L609 118z"/>
<path style="fill:#f3bb5a; stroke:none;" d="M618 118L619 119L618 118z"/>
<path style="fill:#40ae9a; stroke:none;" d="M758 118L759 119L758 118M132 119L133 120L132 119z"/>
<path style="fill:#f3bb5a; stroke:none;" d="M152 119L153 120L152 119M608 119L609 120L608 119z"/>
<path style="fill:#40ae9a; stroke:none;" d="M617 119L618 120L617 119z"/>
<path style="fill:#f3bb5a; stroke:none;" d="M621 119L622 120L621 119M749 119L750 120L749 119z"/>
<path style="fill:#40ae9a; stroke:none;" d="M133 120L134 121L133 120z"/>
<path style="fill:#f3bb5a; stroke:none;" d="M151 120L152 121L151 120M218 120L219 131L220 131L220 120L218 120M265 120L265 121L284 121L265 120M622 120L623 121L622 120z"/>
<path style="fill:#40ae9a; stroke:none;" d="M632 120L633 121L632 120z"/>
<path style="fill:#f3bb5a; stroke:none;" d="M676 135L676 134L670 134L670 121L683 121L683 134C683.849 131.978 683.985 130.223 683.996 127.995C684.028 121.591 675.289 114.96 670.028 121.603C665.517 127.299 669.704 134.793 676 135M777 134L778 134L778 121L792 121C779.506 115.757 777 123.614 777 134M849 120L849 121L863 121L849 120M921 120L921 125L922 125L922 121L935 121L935 134C940.397 121.14 930.973 120 921 120z"/>
<path style="fill:#40ae9a; stroke:none;" d="M134 121L135 122L134 121z"/>
<path style="fill:#f3bb5a; stroke:none;" d="M150 121L151 122L150 121z"/>
<path style="fill:#40ae9a; stroke:none;" d="M623 121L624 122L623 121z"/>
<path style="fill:#f3bb5a; stroke:none;" d="M633 121L634 122L633 121z"/>
<path style="fill:#d25b65; stroke:none;" d="M670 121L670 134L683 134L683 121L670 121M778 121L778 134C789.823 134 792 133.12 792 121L778 121M849 121L849 134L863 134L863 121L849 121M922 121L921 133L935 134L935 121L922 121z"/>
<path style="fill:#40ae9a; stroke:none;" d="M135 122L136 123L135 122z"/>
<path style="fill:#f3bb5a; stroke:none;" d="M149 122L150 123L149 122M606 122L607 123L606 122M615 122L616 123L615 122z"/>
<path style="fill:#40ae9a; stroke:none;" d="M749 122L750 123L749 122M136 123L137 124L136 123z"/>
<path style="fill:#f3bb5a; stroke:none;" d="M148 123L149 124L148 123z"/>
<path style="fill:#40ae9a; stroke:none;" d="M257.333 123.667L257.667 124.333L257.333 123.667z"/>
<path style="fill:#f3bb5a; stroke:none;" d="M605 123L606 124L605 123z"/>
<path style="fill:#40ae9a; stroke:none;" d="M614 123L615 124L614 123M758 123L759 124L758 123M137 124L138 125L137 124z"/>
<path style="fill:#f3bb5a; stroke:none;" d="M147 124L148 125L147 124M157.333 124.667L157.667 125.333L157.333 124.667M283 124L283 127L285 124L283 124M625 124L626 125L625 124M745 124L746 125L745 124z"/>
<path style="fill:#40ae9a; stroke:none;" d="M138 125L139 126L138 125z"/>
<path style="fill:#f3bb5a; stroke:none;" d="M146 125L147 126L146 125M257 125L258 126L257 125z"/>
<path style="fill:#40ae9a; stroke:none;" d="M636 125L637 126L636 125z"/>
<path style="fill:#f3bb5a; stroke:none;" d="M717 125L718 126L717 125M720.667 125.333L721.333 125.667L720.667 125.333M723 125L724 126L723 125M730 125L730 126L740 126L730 125z"/>
<path style="fill:#40ae9a; stroke:none;" d="M740.667 125.333L741.333 125.667L740.667 125.333z"/>
<path style="fill:#f3bb5a; stroke:none;" d="M757 125L758 126L757 125z"/>
<path style="fill:#40ae9a; stroke:none;" d="M139 126L140 127L139 126z"/>
<path style="fill:#f3bb5a; stroke:none;" d="M145 126L146 127L145 126M159 126L160 127L159 126z"/>
<path style="fill:#40ae9a; stroke:none;" d="M603 126L604 127L603 126z"/>
<path style="fill:#f3bb5a; stroke:none;" d="M612 126L613 127L612 126M637 126L638 127L637 126M756 126L757 127L756 126z"/>
<path style="fill:#40ae9a; stroke:none;" d="M140 127L141 128L140 127z"/>
<path style="fill:#f3bb5a; stroke:none;" d="M144 127L145 128L144 127M162.667 127.333L163.333 127.667L162.667 127.333z"/>
<path style="fill:#40ae9a; stroke:none;" d="M258 127L259 128L258 127z"/>
<path style="fill:#f3bb5a; stroke:none;" d="M265.333 127.667L265.667 128.333L265.333 127.667z"/>
<path style="fill:#40ae9a; stroke:none;" d="M283 127L284 128L283 127z"/>
<path style="fill:#f3bb5a; stroke:none;" d="M602 127L603 128L602 127z"/>
<path style="fill:#40ae9a; stroke:none;" d="M611 127L612 128L611 127z"/>
<path style="fill:#f3bb5a; stroke:none;" d="M755 127L756 128L755 127z"/>
<path style="fill:#40ae9a; stroke:none;" d="M141 128L142 129L141 128z"/>
<path style="fill:#f3bb5a; stroke:none;" d="M143 128L144 129L143 128z"/>
<path style="fill:#40ae9a; stroke:none;" d="M218 128L218 133L219 133L218 128z"/>
<path style="fill:#f3bb5a; stroke:none;" d="M258 128L259 129L258 128M282 128L281 132L282 132L284 128L282 128M628 128L629 129L628 128z"/>
<path style="fill:#40ae9a; stroke:none;" d="M752 128L753 129L752 128z"/>
<path style="fill:#f3bb5a; stroke:none;" d="M753 128L754 129L753 128M921 128L921 132L922 132L921 128M142 129L143 130L142 129z"/>
<path style="fill:#40ae9a; stroke:none;" d="M259 129L260 130L259 129M265 129L266 130L265 129M601 129L602 130L601 129M629 129L630 130L629 129M639 129L640 130L639 129M749 129L750 130L749 129z"/>
<path style="fill:#f3bb5a; stroke:none;" d="M750 129L751 130L750 129z"/>
<path style="fill:#40ae9a; stroke:none;" d="M260 130L261 131L260 130z"/>
<path style="fill:#f3bb5a; stroke:none;" d="M600 130L601 131L600 130M609 130L610 131L609 130M640 130L641 131L640 130z"/>
<path style="fill:#40ae9a; stroke:none;" d="M743.667 130.333L744.333 130.667L743.667 130.333z"/>
<path style="fill:#f3bb5a; stroke:none;" d="M745.667 130.333L746.333 130.667L745.667 130.333M203 131L204 132L203 131M266 131L267 132L266 131M599 131L600 132L599 131M630 131L631 132L630 131M717 131L717 132L734 132L717 131z"/>
<path style="fill:#40ae9a; stroke:none;" d="M204 132L205 133L204 132z"/>
<path style="fill:#f3bb5a; stroke:none;" d="M261 132L262 133L261 132M280 132L281 133L280 132M204 133L205 134L204 133z"/>
<path style="fill:#d25b65; stroke:none;" d="M210 133L211 134L210 133M217 133L218 134L217 133z"/>
<path style="fill:#40ae9a; stroke:none;" d="M263 133L264 134L263 133M267 133L268 134L267 133z"/>
<path style="fill:#f3bb5a; stroke:none;" d="M271 135L271 136L282 137L282 145L283 145L283 136L277 136L277 135L280 134L271 135M302 133L302 134L309 134L302 133z"/>
<path style="fill:#40ae9a; stroke:none;" d="M598 133L599 134L598 133M642 133L643 134L642 133z"/>
<path style="fill:#f3bb5a; stroke:none;" d="M791 133L792 134L791 133M921 133L922 134L921 133M205 134L206 135L205 134z"/>
<path style="fill:#40ae9a; stroke:none;" d="M211 134L212 135L211 134M216 134L217 135L216 134M226 134L227 135L226 134M233 134L234 135L233 134z"/>
<path style="fill:#f3bb5a; stroke:none;" d="M264 134L265 135L264 134z"/>
<path style="fill:#d25b65; stroke:none;" d="M265 134L266 135L265 134z"/>
<path style="fill:#40ae9a; stroke:none;" d="M268 134L269 135L268 134z"/>
<path style="fill:#f3bb5a; stroke:none;" d="M269 134L270 135L269 134M297 134L297 135L300 135L297 134z"/>
<path style="fill:#d25b65; stroke:none;" d="M282 145L282 137L267 135L268 137L260 137L260 235L282 235C282 214.704 276.246 183.315 286.417 165.004C289.65 159.183 295.031 158.293 299.83 154.491C306.579 149.144 311.532 142.685 319 138C307.12 127.622 291.916 137.528 282 145z"/>
<path style="fill:#f3bb5a; stroke:none;" d="M311 134L311 135L314 135L311 134M318 136C316.296 141.335 301.231 153.509 296 156L296 157L299 157C280.412 186.555 296.251 231.977 332 237.561C347.929 240.049 356.392 231.234 370 226L370 235L392 235L392 137L370 137L370 147L343 134.3L318 136z"/>
<path style="fill:#40ae9a; stroke:none;" d="M406 144L406 137L392 137L392 235L406 235C406 217.324 404.192 198.517 406.576 181C407.465 174.474 407.925 167.366 412.394 162.094C421.727 151.084 428.117 161.538 437.775 159.173C442.633 157.983 447.606 143.414 449 139C439.177 134.992 428.31 131.43 418 136.189C413.622 138.21 410.273 141.795 406 144z"/>
<path style="fill:#f3bb5a; stroke:none;" d="M597 134L598 135L597 134M643 134L644 135L643 134M677 134L677 135L682 135L677 134M780 134L780 135L790 135L780 134M850 134L851 135L850 134M852 134L852 135L862 135L852 134M922 134L922 135L934 135L922 134z"/>
<path style="fill:#40ae9a; stroke:none;" d="M208 135L209 136L208 135M213.667 135.333L214.333 135.667L213.667 135.333M224.667 135.333L225.333 135.667L224.667 135.333M234 135L235 136L234 135M243 135L243 136L246 136L243 135M254.667 135.333L255.333 135.667L254.667 135.333z"/>
<path style="fill:#f3bb5a; stroke:none;" d="M295 135L296 136L295 135M315.667 135.333L316.333 135.667L315.667 135.333M644 135L645 136L644 135z"/>
<path style="fill:#d25b65; stroke:none;" d="M155 137L155 213C166.338 213.369 163 226.618 163 235L178 235L178 167L177 136L155 137M212.667 136.333L213.333 136.667L212.667 136.333M220 136L221 137L220 136M222 136L222 137L227 137L222 136M230.667 136.333L231.333 136.667L230.667 136.333M234 136L234 137L237 137L234 136z"/>
<path style="fill:#f3bb5a; stroke:none;" d="M293 136L294 137L293 136z"/>
<path style="fill:#f1f4f4; stroke:none;" d="M242 137L242 138L259 150L259 137L242 137z"/>
<path style="fill:#f3bb5a; stroke:none;" d="M291 137L292 138L291 137M445 137L446 138L445 137M447.333 137.667L447.667 138.333L447.333 137.667M508 137L509 138L508 137M511 137L511 138L526 138L511 137M527 137L527 138L532 138L527 137z"/>
<path style="fill:#40ae9a; stroke:none;" d="M595 137L596 138L595 137M604 137L605 138L604 137M635 137L636 138L635 137M645 137L646 138L645 137z"/>
<path style="fill:#f3bb5a; stroke:none;" d="M290 138L291 139L290 138M594 138L595 139L594 138M646 138L647 139L646 138M288 139L289 140L288 139M530.333 139.667L530.667 140.333L530.333 139.667M636 139L637 140L636 139M647 139L648 140L647 139M287 140L288 141L287 140M602 140L603 141L602 140M637 140L638 141L637 140M286 141L287 142L286 141M592 141L593 142L592 141M285 142L286 143L285 142M450 142L451 145L452 145L450 142M591 142L592 143L591 142M649 142L650 143L649 142M284 143L285 144L284 143M639 143L640 144L639 143z"/>
<path style="fill:#40ae9a; stroke:none;" d="M650 143L651 144L650 143M886 143L887 144L886 143z"/>
<path style="fill:#f3bb5a; stroke:none;" d="M504 144L505 145L504 144M589 144L590 145L589 144z"/>
<path style="fill:#d25b65; stroke:none;" d="M599 144L600 145L599 144z"/>
<path style="fill:#40ae9a; stroke:none;" d="M587.333 145.667L587.667 146.333L587.333 145.667M600.333 145.667L600.667 146.333L600.333 145.667M639.333 145.667L639.667 146.333L639.333 145.667z"/>
<path style="fill:#f3bb5a; stroke:none;" d="M654.333 145.667L654.667 146.333L654.333 145.667z"/>
<path style="fill:#40ae9a; stroke:none;" d="M812.333 145.667L812.667 146.333L812.333 145.667z"/>
<path style="fill:#f3bb5a; stroke:none;" d="M826.333 145.667L826.667 146.333L826.333 145.667z"/>
<path style="fill:#40ae9a; stroke:none;" d="M884 145L885 146L884 145M897 145L898 146L897 145z"/>
<path style="fill:#f3bb5a; stroke:none;" d="M898.333 145.667L898.667 146.333L898.333 145.667z"/>
<path style="fill:#40ae9a; stroke:none;" d="M970 145L971 146L970 145z"/>
<path style="fill:#f3bb5a; stroke:none;" d="M984.333 145.667L984.667 146.333L984.333 145.667M445 146L446 147L445 146M503 146L504 147L503 146z"/>
<path style="fill:#40ae9a; stroke:none;" d="M590 146L590 147L593 147L590 146M594.667 146.333L595.333 146.667L594.667 146.333z"/>
<path style="fill:#d25b65; stroke:none;" d="M596 146L597 147L596 146z"/>
<path style="fill:#40ae9a; stroke:none;" d="M598 146L599 147L598 146M641.667 146.333L642.333 146.667L641.667 146.333M645 146L646 147L645 146M647.667 146.333L648.333 146.667L647.667 146.333M650.667 146.333L651.333 146.667L650.667 146.333M706.667 146.333L707.333 146.667L706.667 146.333M709 146L709 147L716 147L709 146M815 146L816 147L815 146M817 146L817 147L822 147L817 146z"/>
<path style="fill:#d25b65; stroke:none;" d="M822 146L823 147L822 146z"/>
<path style="fill:#40ae9a; stroke:none;" d="M823 146L824 147L823 146z"/>
<path style="fill:#d25b65; stroke:none;" d="M887 146L888 147L887 146z"/>
<path style="fill:#40ae9a; stroke:none;" d="M889 146L889 147L892 147L889 146M893 146L893 147L896 147L893 146M972 146L972 147L978 147L972 146M980.667 146.333L981.333 146.667L980.667 146.333z"/>
<path style="fill:#f3bb5a; stroke:none;" d="M525 149L526 150L525 149M454 150L456 152L454 150M501 150L502 151L501 150M442 152L443 153L442 152M500 152L499 155L500 152z"/>
<path style="fill:#f1f4f4; stroke:none;" d="M217 154.518C180.621 157.248 182.964 220.589 220 217.674C256.778 214.78 254.457 151.707 217 154.518M337 154.468C300.486 161.368 310.353 224.836 349 217.532C384.766 210.773 374.778 147.328 337 154.468z"/>
<path style="fill:#f3bb5a; stroke:none;" d="M441 154L442 155L441 154M442 155L445 159L442 155M522 155L523 156L522 155M498 156L499 157L498 156M293 157L294 158L293 157M521 157L518 162L521 157M292 158L293 159L292 158M290 159L291 160L290 159M289 160L290 161L289 160M437.667 160.333L438.333 160.667L437.667 160.333M460.333 160.667L460.667 161.333L460.333 160.667M496 160L495 164L496 164L496 160M288 161L289 162L288 161M439.333 161.667L439.667 162.333L439.333 161.667M287 162L288 163L287 162M461 163L462 164L461 163M286 164L287 165L286 164M438 164L439 165L438 164M517 164L518 165L517 164M462 165L463 166L462 165M285.333 166.667L285.667 167.333L285.333 166.667M440 166L441 167L440 166M442 166L443 167L442 166M495 166L496 167L495 166M516 166L515 168L516 166M493 167L492 169L493 167M464 168L465 169L464 168M284.333 169.667L284.667 170.333L284.333 169.667M491 170L492 171L491 170M442 171L443 172L442 171M283 172L283 175L284 175L283 172M466 172L467 173L466 172M513 172L514 173L513 172M443 173L444 174L443 173M512 174L513 175L512 174M468.333 175.667L468.667 176.333L468.333 175.667M445 176L446 177L445 176M511 176L510 179L511 179L511 176M446 178L447 179L446 178M487 178L488 179L487 178M508 178L509 179L508 178M999.667 178.333L1000.33 178.667L999.667 178.333z"/>
<path style="fill:#d25b65; stroke:none;" d="M997 179C997.075 185.301 998.699 186.925 1005 187L1006 180L997 179z"/>
<path style="fill:#f3bb5a; stroke:none;" d="M1005 179L1006 180L1005 179M447 180L449 182L447 180M1005 181L1005 187L1006 187L1005 181M508 182L507 185L508 185L508 182M449 183L450 184L449 183M472 183L473 187L474 187L472 183M451 184L452 185L451 184z"/>
<path style="fill:#d25b65; stroke:none;" d="M550 185L550 300L559 300L558 186L550 185z"/>
<path style="fill:#f3bb5a; stroke:none;" d="M984 185L984 186L992 186L992 193C994.818 186.211 989.623 185.02 984 185M483 186L484 187L483 186M504 186L505 187L504 186z"/>
<path style="fill:#d25b65; stroke:none;" d="M984 186C984.075 192.301 985.699 193.925 992 194L992 186L984 186z"/>
<path style="fill:#f3bb5a; stroke:none;" d="M997 186L998 187L997 186M998 187L998 188L1001 188L998 187M1002.67 187.333L1003.33 187.667L1002.67 187.333M451 188L452 189L451 188M482 188L483 189L482 188M504.333 188.667L504.667 189.333L504.333 188.667M475 189L476 190L475 189z"/>
<path style="fill:#40ae9a; stroke:none;" d="M658 190L658 194L663 193L662 189L658 190M847 189C845.4 195.719 842.391 218.505 851 220C851 212.785 854.587 192.05 847 189M711 190L711 220L715 220L715 190L711 190M791 199L787 203L791 203L791 220L795 220L795 203L800 202L800 200L795 199L800 190C793.167 190.081 791.081 192.167 791 199M932 190L937 194L937 190L932 190z"/>
<path style="fill:#f3bb5a; stroke:none;" d="M503 191L504 192L503 191M477.333 192.667L477.667 193.333L477.333 192.667z"/>
<path style="fill:#40ae9a; stroke:none;" d="M587 192L587 220L591 220L591 192L587 192z"/>
<path style="fill:#f3bb5a; stroke:none;" d="M997 192L997 193L1005 193L1004 201C1010.49 195.332 1002.02 192.018 997 192M984 193L985 194L984 193z"/>
<path style="fill:#d25b65; stroke:none;" d="M997 193C997.113 202.514 1004.89 202.514 1005 193L997 193z"/>
<path style="fill:#f3bb5a; stroke:none;" d="M455 194L456 195L455 194M456 196L456 198L458 198L456 196M498 196L499 197L498 196M499 199L500 200L499 199z"/>
<path style="fill:#40ae9a; stroke:none;" d="M597 220L602 219C601.393 216.444 601.087 199.052 607.401 204.662C610.594 207.498 609 216.128 609 220C618.37 218.436 614.603 192.392 602 201C594.661 196.389 597 215.859 597 220M628 212C626.453 217.098 622.783 216.983 618 217L618 220C623.38 220.679 638.148 220.364 631.678 210.434C628.994 206.313 623.746 208.529 622 203L632 202L632 200C617.957 195.849 612.823 210.749 628 212M637 199L637 228L641 228L641 219C660.46 227.156 654.821 191.299 642 201L637 199M658 220L662 220L662 199C655.32 201.217 658 214.136 658 220M668 199L668 220L672 220L672.742 208.043L678 199L668 199M696 217C683.528 216.964 685.717 211.001 697 211C696.99 207.56 697.455 203.114 694.566 200.603C690.056 196.684 682.285 199.314 681.228 205.005C680.548 208.669 680.11 215.506 682.742 218.486C686.21 222.413 694.255 221.962 696 217M723.228 199.742C714.723 203.715 719.867 227.141 732.852 219.682C741.512 214.707 736.069 193.745 723.228 199.742M739 199C740.124 206.613 741.966 219.7 751 220L757 200C750.166 198.965 749.426 208.785 749 214C744.767 209.198 746.224 200.202 739 199M775 217C769.473 216.996 766.106 216.984 763 212L776 211C774.976 195.757 758.42 195.184 759.018 211C759.314 218.822 772.176 226.655 775 217M805.228 200.028C796.14 205.584 803.143 226.705 815.772 219.566C824.863 214.427 817.74 192.378 805.228 200.028M824 199L824 220L828 220L828.742 208.043L834 199L824 199M871 217C865.532 216.996 861.006 217.306 860 211L872 211C871.991 197.137 856.272 194.132 855.319 209C854.763 217.688 867.875 227.683 871 217M876 200L876 202C880.804 203.424 885.313 202.443 887 208C881.501 208.004 867.665 213.555 878.228 219.678C881.9 221.806 887.87 219.916 892 220C892 207.755 892.108 195.239 876 200M897 199L897 220L901 220L901.742 208.043L907 199L901 202L897 199z"/>
<path style="fill:#f3bb5a; stroke:none;" d="M900 199L901 200L900 199z"/>
<path style="fill:#40ae9a; stroke:none;" d="M911 199L911 220L915 220C915 216.397 913.144 203.636 919 203.636C924.857 203.636 923 216.397 923 220L927 220C927 213.616 928.464 191.569 916 201L911 199M932 220L937 220C937 217.189 938.559 199.049 934.17 199.921C930.068 200.736 932 216.691 932 220M942 199L942 220L946 220C946 216.994 944.811 200.872 951.698 204.176C955.756 206.123 954 216.324 954 220L958 220C958 213.052 959.842 192.229 947 201L942 199M975 219C973.998 225.136 969.346 224.985 964 225C965.835 230.218 974.935 230.294 977.976 225.697C980.895 221.284 981.787 206.063 979.397 201.332C977.665 197.904 967.968 198.406 965.434 200.603C957.242 207.705 963.718 222.991 975 219z"/>
<path style="fill:#d25b65; stroke:none;" d="M984 199L984 207L992 207L992 199L984 199z"/>
<path style="fill:#f3bb5a; stroke:none;" d="M992 200L992 207L993 207L992 200M997 200L998 201L997 200M498 201L499 202L498 201z"/>
<path style="fill:#f1f4f4; stroke:none;" d="M643.313 204.047C638.637 206.971 641.522 220.099 647.397 215.802C650.915 213.229 649.467 200.2 643.313 204.047M685 208L693 208C691.998 201.997 686.002 201.997 685 208M725.603 204.032C721.753 206.999 724.187 220.754 730.397 215.968C734.246 213.001 731.813 199.246 725.603 204.032M764 203L764 208L771 208L771 203L764 203M807 203C806.981 205.35 806.774 207.658 806.67 210.001C805.968 225.733 825.978 203.225 807 203M860 208L868 207L867 203C862.824 203.137 860.728 203.638 860 208M968.742 204.032C965.308 206.736 966.991 219.196 972.698 215.914C977.471 213.168 974.749 199.302 968.742 204.032z"/>
<path style="fill:#f3bb5a; stroke:none;" d="M461 205L462 206L461 205M495 207L494 210L495 210L495 207M984 207L984 208L992 208L984 207M464 210L465 211L464 210z"/>
<path style="fill:#f1f4f4; stroke:none;" d="M880 211L880 217C884.724 216.845 886.619 215.89 887 211L880 211z"/>
<path style="fill:#f3bb5a; stroke:none;" d="M465 212L468 215L465 212z"/>
<path style="fill:#454546; stroke:none;" d="M156.667 213.333L157.333 213.667L156.667 213.333M161 213L162 214L161 213z"/>
<path style="fill:#f3bb5a; stroke:none;" d="M491.333 214.667L491.667 215.333L491.333 214.667M490 217L491 218L490 217M487 218L488 219L487 218M464 223L465 224L464 223M486 224L487 225L486 224M485 226L486 227L485 226M92 230L92 234L93 234L92 230M482 232L483 233L482 232z"/>
<path style="fill:#454546; stroke:none;" d="M156 234L156 235L163 235L156 234z"/>
<path style="fill:#f3bb5a; stroke:none;" d="M458 234L459 235L458 234M156 235L157 236L156 235z"/>
<path style="fill:#40ae9a; stroke:none;" d="M157 235L157 236L162 236L157 235z"/>
<path style="fill:#f3bb5a; stroke:none;" d="M457 236L455 240L456 240L457 236M479 236L480 237L479 236M477 238L478 239L477 238M477 241L476 244L477 244L477 241M453 243L454 244L453 243M452 245L453 246L452 245M475 245L476 246L475 245M473 246L474 247L473 246M451 247L454 249L454 248L451 247M472 251L473 252L472 251M448 253L447 255L448 253M471 253L472 254L471 253M446.333 256.667L446.667 257.333L446.333 256.667M468 258L467 261L468 258M444 260L445 261L444 260M443 262L442 265L443 265L443 262M441 266L442 267L441 266M464 267L465 268L464 267M462 269L463 270L462 269M460.667 272.333L461.333 272.667L460.667 272.333M437 273L436 276L437 273M460 274L461 275L460 274M434 278L435 279L434 278M457 279L458 280L457 279M433 280L434 281L433 280M432 282L433 283L432 282M454 282L455 283L454 282M456 282L457 283L456 282M455 284L454 286L455 284M432 285L433 286L432 285M430 286L431 287L430 286M453 287L454 288L453 287z"/>
</svg>
